<?xml version="1.0" standalone="no"?>
<!DOCTYPE svg PUBLIC "-//W3C//DTD SVG 20010904//EN"
 "http://www.w3.org/TR/2001/REC-SVG-20010904/DTD/svg10.dtd">
<svg version="1.0" xmlns="http://www.w3.org/2000/svg"
 width="500.000000pt" height="500.000000pt" viewBox="0 0 500.000000 500.000000"
 preserveAspectRatio="xMidYMid meet">
<metadata>
Created by potrace 1.14, written by Peter Selinger 2001-2017
</metadata>
<g transform="translate(0.000000,500.000000) scale(0.100000,-0.100000)"
fill="#000000" stroke="none">
<path d="M2340 4794 c-36 -8 -76 -16 -88 -19 -200 -37 -437 -197 -570 -385
-26 -36 -51 -68 -57 -72 -5 -4 -6 -8 -1 -8 5 0 2 -8 -6 -17 -9 -10 -24 -34
-33 -53 -10 -19 -22 -38 -28 -41 -12 -8 -154 -2 -168 6 -5 4 -9 3 -9 -2 0 -4
-29 -8 -65 -7 -56 0 -156 -20 -253 -51 -48 -16 -198 -94 -228 -120 -7 -5 -29
-23 -49 -40 -85 -68 -172 -165 -210 -234 -11 -20 -23 -38 -26 -41 -16 -12 -70
-161 -88 -240 -51 -232 -21 -439 95 -648 80 -143 186 -278 221 -280 10 0 86
-1 168 -1 83 1 157 1 165 1 56 -1 59 3 75 113 4 22 8 50 10 62 4 24 -6 37 -45
63 -12 8 -41 32 -64 52 -22 21 -44 38 -48 38 -5 0 -8 6 -8 13 0 7 -9 18 -20
25 -11 7 -20 19 -20 27 0 8 -3 15 -8 15 -8 0 -23 31 -55 114 -48 123 -18 352
57 446 42 52 138 140 147 135 5 -4 9 -2 9 3 0 5 10 13 23 17 30 10 36 12 42
15 3 1 8 3 13 5 4 1 18 5 32 9 52 14 236 24 247 12 4 -3 8 -34 9 -69 2 -34 8
-82 14 -107 6 -25 12 -54 14 -65 12 -63 86 -214 150 -308 45 -65 54 -87 39
-87 -76 -4 -185 -48 -239 -97 -60 -55 -157 -212 -169 -274 -2 -8 -9 -38 -17
-65 -8 -27 -13 -55 -12 -61 1 -7 2 -16 3 -20 0 -5 534 -8 1186 -8 1026 0 1187
2 1195 15 5 8 6 18 4 22 -3 5 -7 18 -10 31 -9 52 -14 66 -45 142 -18 44 -36
82 -41 83 -4 2 -8 8 -8 14 0 16 -60 98 -99 135 -44 42 -89 62 -155 69 -38 4
-57 13 -74 32 -14 15 -68 74 -122 132 -124 133 -160 173 -160 183 0 21 -32 -1
-98 -67 -74 -74 -159 -126 -232 -142 -19 -4 -42 -9 -50 -11 -48 -10 -160 -1
-219 18 -169 55 -313 205 -373 387 -28 85 -30 248 -5 332 22 69 40 110 49 110
5 0 8 6 8 14 0 8 33 48 73 89 89 92 168 135 302 163 11 3 45 5 75 5 236 0 429
-144 502 -375 28 -89 28 -281 0 -357 -14 -35 3 -59 155 -210 111 -111 136
-132 150 -123 18 11 85 125 78 133 -3 2 -1 9 3 15 30 40 60 170 65 279 2 31 6
39 27 44 64 17 291 -4 306 -28 3 -5 14 -9 24 -9 10 0 20 -3 22 -7 2 -5 22 -20
44 -35 85 -55 168 -188 182 -293 7 -52 7 -183 -1 -215 -24 -103 -78 -203 -142
-264 -32 -30 -119 -88 -147 -99 -24 -8 -23 -24 7 -121 l25 -83 188 2 c207 2
212 3 270 67 20 23 42 46 47 52 85 94 181 307 204 451 11 75 11 234 -1 241 -4
3 -6 10 -3 15 7 11 -24 140 -36 154 -5 5 -9 15 -9 23 0 21 -101 222 -111 222
-5 0 -9 5 -9 11 0 14 -72 102 -122 149 -57 54 -98 90 -103 90 -2 0 -23 13 -47
29 -65 43 -164 87 -253 113 -69 19 -103 23 -246 23 l-167 0 -23 45 c-12 25
-35 64 -51 88 -15 24 -28 47 -28 52 0 4 -3 10 -7 12 -5 2 -26 25 -48 53 -56
69 -166 175 -177 169 -4 -3 -8 -1 -8 5 0 18 -163 110 -245 140 -36 12 -112 33
-140 37 -66 12 -267 10 -325 -2z"/>
<path d="M847 2239 c-10 -6 -12 -74 -10 -335 1 -180 5 -329 8 -332 10 -10 106
-8 112 2 4 6 7 74 8 152 1 155 8 180 63 208 23 12 32 12 58 1 18 -7 35 -19 40
-27 5 -7 9 -74 10 -148 1 -74 3 -147 3 -162 1 -27 2 -28 61 -28 l59 0 -2 198
-2 197 -34 33 c-41 38 -102 53 -161 39 -27 -6 -78 -36 -83 -49 -6 -15 -7 -1
-10 147 l-2 109 -52 1 c-29 0 -59 -2 -66 -6z"/>
<path d="M3271 2238 c-35 -12 -51 -38 -49 -76 3 -42 19 -55 73 -58 41 -2 44
-1 58 33 26 66 -21 124 -82 101z"/>
<path d="M3935 2243 c-9 -2 -10 -209 -6 -625 l1 -48 63 0 63 0 1 73 c2 98 2
97 13 97 13 0 59 -51 60 -65 0 -5 20 -32 44 -59 44 -49 45 -50 104 -50 33 0
67 6 75 12 7 7 17 9 21 5 17 -18 175 -25 195 -9 8 6 15 10 15 8 3 -10 54 20
76 43 20 21 25 37 25 80 0 68 -15 84 -123 137 -46 23 -86 47 -89 55 -14 37 44
54 117 33 31 -9 37 -7 63 18 30 31 29 62 -4 62 -10 0 -19 5 -19 10 0 6 -3 9
-7 9 -5 -1 -10 0 -13 1 -22 8 -54 12 -105 13 -74 1 -124 -27 -148 -85 -37 -85
-4 -156 93 -200 98 -44 110 -51 110 -62 -1 -37 -30 -44 -136 -31 l-62 8 -7
-32 c-6 -27 -25 -45 -25 -23 0 4 -14 21 -30 39 -17 18 -30 35 -30 38 0 4 -15
25 -34 48 -57 71 -60 83 -34 120 12 17 25 34 28 37 3 3 19 23 35 45 17 22 33
42 36 45 3 3 11 15 18 28 13 24 17 23 -57 27 -47 2 -50 0 -103 -65 -18 -24
-42 -51 -51 -62 -10 -10 -18 -22 -18 -27 0 -5 -7 -14 -15 -21 -14 -11 -15 6
-14 161 1 96 1 183 0 195 -1 18 -7 21 -58 21 -32 0 -62 -2 -68 -4z"/>
<path d="M465 2216 c-134 -59 -173 -204 -85 -313 26 -32 123 -87 134 -76 3 3
11 2 18 -4 7 -5 31 -15 54 -22 22 -7 46 -22 52 -32 16 -25 5 -67 -19 -74 -10
-4 -19 -10 -19 -14 0 -8 -8 -9 -64 -12 -38 -1 -99 16 -133 38 -25 17 -46 7
-77 -35 l-20 -25 34 -29 c19 -15 42 -28 51 -28 10 0 19 -4 21 -9 8 -23 157
-33 210 -15 21 7 38 11 38 8 0 -6 52 29 83 56 9 8 17 22 17 30 0 9 4 20 9 26
12 12 16 72 6 109 -17 66 -95 128 -190 151 -45 10 -99 40 -112 62 -16 27 -10
70 13 88 30 23 157 8 193 -23 25 -21 30 -17 62 43 29 56 28 69 -3 75 -12 2
-21 5 -38 11 -75 29 -187 36 -235 14z"/>
<path d="M2793 2223 c-18 -7 -19 -653 -1 -654 7 0 87 -2 178 -3 150 -2 197 4
186 23 -3 4 -1 24 4 44 9 43 21 39 -127 39 -68 0 -105 4 -110 11 -4 7 -9 120
-9 252 -1 132 -3 250 -3 261 -1 23 -39 37 -62 23 -7 -4 -20 -4 -28 0 -9 5 -21
6 -28 4z"/>
<path d="M3671 2049 c-18 -4 -51 -15 -72 -24 -35 -16 -41 -16 -57 -3 -24 21
-50 29 -57 17 -4 -5 -10 -7 -14 -4 -5 2 -16 -1 -25 -8 -15 -11 -17 -37 -16
-231 0 -121 2 -222 5 -225 15 -14 105 -17 114 -3 3 6 5 80 5 166 -1 152 -1
157 23 180 26 26 77 38 93 22 5 -5 10 -7 10 -2 0 4 8 0 17 -9 14 -15 17 -41
18 -179 0 -88 4 -166 8 -172 7 -11 105 -13 123 -2 5 4 9 83 8 195 0 156 -3
194 -17 220 -27 52 -95 78 -166 62z"/>
<path d="M1497 2044 c-1 -1 -19 -5 -40 -8 -50 -8 -107 -32 -107 -46 0 -6 10
-25 22 -43 13 -18 24 -34 25 -36 1 -1 8 1 15 5 21 14 70 19 139 15 17 -1 30
-9 36 -24 15 -32 5 -42 -42 -43 -36 -1 -58 -5 -105 -16 -29 -6 -99 -74 -102
-98 -5 -52 -4 -78 5 -105 11 -34 61 -84 86 -86 80 -7 134 5 152 33 3 5 14 2
24 -8 11 -11 34 -18 66 -19 57 -2 51 -24 53 190 2 156 -8 202 -55 247 -16 14
-43 30 -61 34 -32 7 -106 12 -111 8z m89 -275 c4 -7 9 -25 10 -42 3 -22 -2
-34 -18 -46 -31 -22 -68 -29 -100 -18 -35 11 -44 41 -24 72 23 35 116 59 132
34z"/>
<path d="M2245 2038 c-97 -36 -147 -106 -154 -216 -5 -78 17 -140 68 -192 55
-57 93 -70 194 -65 115 5 124 9 121 58 -3 59 -3 59 -12 53 -4 -3 -40 -8 -79
-11 -55 -6 -77 -4 -101 9 -28 15 -62 60 -62 84 0 5 55 9 123 9 139 -1 172 5
174 30 1 10 4 32 6 50 4 31 -28 109 -60 145 -43 48 -149 70 -218 46z m147
-129 c19 -23 25 -36 18 -43 -6 -6 -51 -11 -100 -11 -88 0 -90 0 -90 23 0 24
24 55 50 65 8 4 33 5 55 2 30 -3 47 -12 67 -36z"/>
<path d="M3265 2040 c-3 -5 -12 -7 -20 -3 -18 6 -17 23 -19 -244 -2 -248 -8
-229 74 -228 l45 0 0 233 0 233 -25 5 c-14 3 -30 7 -37 9 -7 2 -15 0 -18 -5z"/>
<path d="M1849 2032 c-25 -2 -38 -9 -41 -20 -6 -27 0 -433 7 -440 10 -11 106
-9 113 3 3 5 6 73 7 150 0 153 5 168 60 195 17 7 40 14 52 15 30 1 31 4 36 57
l5 46 -38 -2 c-21 -2 -57 -13 -81 -25 -42 -22 -58 -18 -59 15 0 6 -6 10 -12
10 -7 -1 -29 -2 -49 -4z"/>
<path d="M1836 1213 c-2 -2 -98 -4 -215 -4 -116 0 -211 -4 -211 -8 0 -4 9 -34
20 -67 24 -68 24 -69 35 -109 4 -16 12 -36 18 -42 5 -7 7 -13 4 -13 -9 0 82
-179 112 -220 171 -237 403 -385 696 -445 17 -4 95 -8 175 -10 113 -2 163 1
229 15 84 19 202 58 211 71 3 3 15 10 28 14 77 24 279 189 390 319 67 79 160
260 176 346 1 3 5 11 9 18 5 6 6 12 3 12 -3 0 -1 11 4 26 6 14 12 38 15 55 4
23 2 29 -12 30 -10 0 -123 2 -250 4 l-233 3 -43 -82 c-48 -90 -59 -106 -130
-178 -99 -101 -214 -149 -374 -153 -133 -4 -244 26 -325 89 -93 71 -171 164
-223 268 -27 52 -32 57 -68 60 -21 2 -39 2 -41 1z"/>
</g>
</svg>
